<svg width="32" height="32" viewBox="0 0 32 32" fill="none" xmlns="http://www.w3.org/2000/svg">
<path d="M14.6667 22.6666L17.3333 25.3333C17.596 25.596 17.9078 25.8043 18.2509 25.9464C18.5941 26.0886 18.9619 26.1617 19.3333 26.1617C19.7048 26.1617 20.0726 26.0886 20.4157 25.9464C20.7589 25.8043 21.0707 25.596 21.3333 25.3333C21.596 25.0707 21.8043 24.7589 21.9464 24.4157C22.0886 24.0725 22.1618 23.7047 22.1618 23.3333C22.1618 22.9619 22.0886 22.5941 21.9464 22.2509C21.8043 21.9078 21.596 21.596 21.3333 21.3333" stroke="#7A8CA8" stroke-width="2" stroke-linecap="round" stroke-linejoin="round"/>
<path d="M18.6667 18.6667L22 22C22.5304 22.5304 23.2499 22.8284 24 22.8284C24.7501 22.8284 25.4696 22.5304 26 22C26.5304 21.4696 26.8284 20.7501 26.8284 20C26.8284 19.2499 26.5304 18.5304 26 18L20.8267 12.8267C20.0767 12.0776 19.06 11.6569 18 11.6569C16.94 11.6569 15.9233 12.0776 15.1733 12.8267L14 14C13.4696 14.5304 12.7501 14.8284 12 14.8284C11.2499 14.8284 10.5304 14.5304 10 14C9.46956 13.4696 9.17157 12.7501 9.17157 12C9.17157 11.2499 9.46956 10.5304 10 10L13.7467 6.25333C14.963 5.04019 16.5492 4.2674 18.2542 4.0573C19.9592 3.84719 21.6855 4.21177 23.16 5.09333L23.7867 5.46667C24.3544 5.80932 25.0294 5.92816 25.68 5.8L28 5.33333" stroke="#7A8CA8" stroke-width="2" stroke-linecap="round" stroke-linejoin="round"/>
<path d="M28 4L29.3333 18.6667H26.6667" stroke="#7A8CA8" stroke-width="2" stroke-linecap="round" stroke-linejoin="round"/>
<path d="M3.99999 4L2.66666 18.6667L11.3333 27.3333C11.8638 27.8638 12.5832 28.1618 13.3333 28.1618C14.0835 28.1618 14.8029 27.8638 15.3333 27.3333C15.8638 26.8029 16.1618 26.0835 16.1618 25.3333C16.1618 24.5832 15.8638 23.8638 15.3333 23.3333" stroke="#7A8CA8" stroke-width="2" stroke-linecap="round" stroke-linejoin="round"/>
<path d="M4 5.33331H14.6667" stroke="#7A8CA8" stroke-width="2" stroke-linecap="round" stroke-linejoin="round"/>
</svg>
